<?xml version="1.0" encoding="UTF-8" standalone="no"?>
<!DOCTYPE svg PUBLIC "-//W3C//DTD SVG 1.1//EN"
 "http://www.w3.org/Graphics/SVG/1.1/DTD/svg11.dtd">
<!-- Generated by graphviz version 2.43.0 (0)
 -->
<!-- Title: variant_graph_joined Pages: 1 -->
<svg width="53917pt" height="134pt"
 viewBox="0.00 0.00 53916.60 134.00" xmlns="http://www.w3.org/2000/svg" xmlns:xlink="http://www.w3.org/1999/xlink">
<g id="graph0" class="graph" transform="scale(1 1) rotate(0) translate(4 130)">
<title>variant_graph_joined</title>
<polygon fill="white" stroke="transparent" points="-4,4 -4,-130 53912.6,-130 53912.6,4 -4,4"/>
<!-- 0 -->
<g id="node1" class="node">
<title>0</title>
<ellipse fill="none" stroke="black" cx="57.84" cy="-67" rx="57.69" ry="18"/>
<text text-anchor="middle" x="57.84" y="-63.3" font-family="Times,serif" font-size="14.00">START (0)</text>
</g>
<!-- 20 -->
<g id="node21" class="node">
<title>20</title>
<ellipse fill="none" stroke="black" cx="1354.79" cy="-67" rx="864.35" ry="18"/>
<text text-anchor="middle" x="1354.79" y="-63.3" font-family="Times,serif" font-size="14.00">WHEN we look to the individuals of the same variety or sub&#45;variety of our older cultivated plants and animals, one of the first points which strikes us, is, that they generally differ (20)</text>
</g>
<!-- 0&#45;&gt;20 -->
<g id="edge1" class="edge">
<title>0&#45;&gt;20</title>
<path fill="none" stroke="black" d="M110.29,-74.79C118.11,-75.71 126.1,-76.5 133.69,-77 143.45,-77.65 145.91,-77.04 155.69,-77 285.95,-76.46 424.17,-75.58 558.66,-74.57"/>
<polygon fill="black" stroke="black" points="558.78,-78.07 568.75,-74.49 558.72,-71.07 558.78,-78.07"/>
<text text-anchor="middle" x="303.03" y="-79.8" font-family="Times,serif" font-size="14.00">w0,w1,w2</text>
</g>
<!-- 33 -->
<g id="node34" class="node">
<title>33</title>
<ellipse fill="none" stroke="black" cx="303.03" cy="-40" rx="129.18" ry="18"/>
<text text-anchor="middle" x="303.03" y="-36.3" font-family="Times,serif" font-size="14.00">Causes of Variability. (33)</text>
</g>
<!-- 0&#45;&gt;33 -->
<g id="edge2" class="edge">
<title>0&#45;&gt;33</title>
<path fill="none" stroke="black" d="M112.51,-61.04C135.81,-58.45 164,-55.32 191.44,-52.28"/>
<polygon fill="black" stroke="black" points="191.95,-55.74 201.51,-51.16 191.18,-48.79 191.95,-55.74"/>
<text text-anchor="middle" x="144.69" y="-61.8" font-family="Times,serif" font-size="14.00">w3</text>
</g>
<!-- 1 -->
<g id="node2" class="node">
<title>1</title>
<ellipse fill="none" stroke="black" cx="53860.51" cy="-73" rx="48.19" ry="18"/>
<text text-anchor="middle" x="53860.51" y="-69.3" font-family="Times,serif" font-size="14.00">END (1)</text>
</g>
<!-- 2 -->
<g id="node3" class="node">
<title>2</title>
<ellipse fill="none" stroke="black" cx="16802.71" cy="-67" rx="5013.81" ry="18"/>
<text text-anchor="middle" x="16802.71" y="-63.3" font-family="Times,serif" font-size="14.00">when the organisation has once begun to vary, it generally continues to vary for many generations. No case is on record of a variable being ceasing to be variable under cultivation. Our oldest cultivated plants, such as wheat, still often yield new varieties: our oldest domesticated animals are still capable of rapid improvement or modification. It has been disputed at what period of life the causes of variability, whatever they may be, generally act; whether during the early or late period of development of the embryo, or at the instant of conception. Geoffroy St. Hilaire&#39;s experiments show that unnatural treatment of the embryo causes monstrosities; and monstrosities cannot be separated by any clear line of distinction from mere variations. But I am strongly inclined to suspect that the most frequent cause of variability may be attributed to the male and female reproductive elements having been affected prior to the act of conception. Several reasons make me believe in this; but the chief one is the remarkable effect which confinement or cultivation has on the (2)</text>
</g>
<!-- 10 -->
<g id="node11" class="node">
<title>10</title>
<ellipse fill="none" stroke="black" cx="22000.76" cy="-94" rx="70.39" ry="18"/>
<text text-anchor="middle" x="22000.76" y="-90.3" font-family="Times,serif" font-size="14.00">function (10)</text>
</g>
<!-- 2&#45;&gt;10 -->
<g id="edge4" class="edge">
<title>2&#45;&gt;10</title>
<path fill="none" stroke="black" d="M19653.51,-81.81C20673.64,-87.11 21641.5,-92.14 21920,-93.59"/>
<polygon fill="black" stroke="black" points="21920.38,-97.09 21930.4,-93.64 21920.42,-90.09 21920.38,-97.09"/>
<text text-anchor="middle" x="21870.86" y="-96.8" font-family="Times,serif" font-size="14.00">w1,w2,w3</text>
</g>
<!-- 34 -->
<g id="node35" class="node">
<title>34</title>
<ellipse fill="none" stroke="black" cx="22000.76" cy="-40" rx="75.29" ry="18"/>
<text text-anchor="middle" x="22000.76" y="-36.3" font-family="Times,serif" font-size="14.00">functions (34)</text>
</g>
<!-- 2&#45;&gt;34 -->
<g id="edge3" class="edge">
<title>2&#45;&gt;34</title>
<path fill="none" stroke="black" d="M19653.51,-52.19C20667.72,-46.92 21630.27,-41.92 21915.08,-40.44"/>
<polygon fill="black" stroke="black" points="21915.35,-43.94 21925.33,-40.39 21915.31,-36.94 21915.35,-43.94"/>
<text text-anchor="middle" x="21870.86" y="-43.8" font-family="Times,serif" font-size="14.00">w0</text>
</g>
<!-- 3 -->
<g id="node4" class="node">
<title>3</title>
<ellipse fill="none" stroke="black" cx="38160.69" cy="-45" rx="3539.67" ry="18"/>
<text text-anchor="middle" x="38160.69" y="-41.3" font-family="Times,serif" font-size="14.00">carnivorous birds, with the rarest exceptions, hardly ever lay fertile eggs. Many exotic plants have pollen utterly worthless, in the same exact condition as in the most sterile hybrids. When, on the one hand, we see domesticated animals and plants, though often weak and sickly, yet breeding quite freely under confinement; and when, on the other hand, we see individuals, though taken young from a state of nature, perfectly tamed, long&#45;lived, and healthy(of which I could give numerous instances), yet having their reproductive system so seriously affected by unperceived causes as to fail in acting, we need not be surprised at this system, when it does act under confinement, acting not quite regularly, and producing offspring not perfectly like their (3)</text>
</g>
<!-- 30 -->
<g id="node31" class="node">
<title>30</title>
<ellipse fill="none" stroke="black" cx="41880.12" cy="-73" rx="70.69" ry="18"/>
<text text-anchor="middle" x="41880.12" y="-69.3" font-family="Times,serif" font-size="14.00">parents. (30)</text>
</g>
<!-- 3&#45;&gt;30 -->
<g id="edge5" class="edge">
<title>3&#45;&gt;30</title>
<path fill="none" stroke="black" d="M40142.17,-59.92C40867.27,-65.38 41567.56,-70.65 41799.09,-72.4"/>
<polygon fill="black" stroke="black" points="41799.07,-75.9 41809.1,-72.47 41799.13,-68.9 41799.07,-75.9"/>
<text text-anchor="middle" x="41754.78" y="-75.8" font-family="Times,serif" font-size="14.00">w1,w2,w3</text>
</g>
<!-- 35 -->
<g id="node36" class="node">
<title>35</title>
<ellipse fill="none" stroke="black" cx="42093.1" cy="-24" rx="124.28" ry="18"/>
<text text-anchor="middle" x="42093.1" y="-20.3" font-family="Times,serif" font-size="14.00">parents or variable. (35)</text>
</g>
<!-- 3&#45;&gt;35 -->
<g id="edge6" class="edge">
<title>3&#45;&gt;35</title>
<path fill="none" stroke="black" d="M40601.63,-31.96C41191.34,-28.81 41720.39,-25.99 41958.62,-24.71"/>
<polygon fill="black" stroke="black" points="41958.72,-28.21 41968.71,-24.66 41958.69,-21.21 41958.72,-28.21"/>
<text text-anchor="middle" x="41754.78" y="-29.8" font-family="Times,serif" font-size="14.00">w0</text>
</g>
<!-- 4 -->
<g id="node5" class="node">
<title>4</title>
<ellipse fill="none" stroke="black" cx="45984.91" cy="-73" rx="3141.64" ry="18"/>
<text text-anchor="middle" x="45984.91" y="-69.3" font-family="Times,serif" font-size="14.00">Habit also has a decided influence, as in the period of flowering with plants when transported from one climate to another. In animals it has a more marked effect; for instance, I find in the domestic duck that the bones of the wing weigh less and the bones of the leg more, in proportion to the whole skeleton, than do the same bones in the wild&#45;duck; and I presume that this change may be safely attributed to the domestic duck flying much less, and walking more, than its wild parent. The great and inherited development of the udders in cows and goats in countries where they are habitually milked, in comparison with the state of these organs in other countries, is (4)</text>
</g>
<!-- 12 -->
<g id="node13" class="node">
<title>12</title>
<ellipse fill="none" stroke="black" cx="49529.36" cy="-73" rx="139.98" ry="18"/>
<text text-anchor="middle" x="49529.36" y="-69.3" font-family="Times,serif" font-size="14.00">another instance of the (12)</text>
</g>
<!-- 4&#45;&gt;12 -->
<g id="edge8" class="edge">
<title>4&#45;&gt;12</title>
<path fill="none" stroke="black" d="M49086.8,-75.87C49175.37,-75.92 49263.12,-75.96 49349.62,-76 49359.4,-76 49361.84,-76.09 49371.62,-76 49374.72,-75.97 49377.85,-75.94 49381.01,-75.9"/>
<polygon fill="black" stroke="black" points="49381.21,-79.4 49391.17,-75.78 49381.13,-72.4 49381.21,-79.4"/>
<text text-anchor="middle" x="49258.18" y="-78.8" font-family="Times,serif" font-size="14.00">w0,w1,w2</text>
</g>
<!-- 36 -->
<g id="node37" class="node">
<title>36</title>
<ellipse fill="none" stroke="black" cx="49258.18" cy="-46" rx="73.39" ry="18"/>
<text text-anchor="middle" x="49258.18" y="-42.3" font-family="Times,serif" font-size="14.00">probably (36)</text>
</g>
<!-- 4&#45;&gt;36 -->
<g id="edge7" class="edge">
<title>4&#45;&gt;36</title>
<path fill="none" stroke="black" d="M47777.37,-58.21C48385.62,-53.19 48964.86,-48.41 49174.53,-46.68"/>
<polygon fill="black" stroke="black" points="49174.56,-50.18 49184.53,-46.6 49174.5,-43.18 49174.56,-50.18"/>
<text text-anchor="middle" x="49155.73" y="-49.8" font-family="Times,serif" font-size="14.00">w3</text>
</g>
<!-- 5 -->
<g id="node6" class="node">
<title>5</title>
<ellipse fill="none" stroke="black" cx="25660.66" cy="-67" rx="2929.88" ry="18"/>
<text text-anchor="middle" x="25660.66" y="-63.3" font-family="Times,serif" font-size="14.00">this system appearing to be far more susceptible than any other part of the organisation, to the action of any change in the conditions of life. Nothing is more easy than to tame an animal, and few things more difficult than to get it to breed freely under confinement, even in the many cases when the male and female unite. How many animals there are which will not breed, though living long under not very close confinement in their native country! This is generally attributed to vitiated instincts; but how many cultivated plants display the utmost vigour, and yet rarely or never seed! In some few such cases it has been (5)</text>
</g>
<!-- 9 -->
<g id="node10" class="node">
<title>9</title>
<ellipse fill="none" stroke="black" cx="28776.29" cy="-94" rx="76.89" ry="18"/>
<text text-anchor="middle" x="28776.29" y="-90.3" font-family="Times,serif" font-size="14.00">discovered (9)</text>
</g>
<!-- 5&#45;&gt;9 -->
<g id="edge9" class="edge">
<title>5&#45;&gt;9</title>
<path fill="none" stroke="black" d="M27355.14,-81.69C27931.28,-86.68 28482.27,-91.46 28689.19,-93.25"/>
<polygon fill="black" stroke="black" points="28689.35,-96.75 28699.38,-93.34 28689.41,-89.76 28689.35,-96.75"/>
<text text-anchor="middle" x="28645.1" y="-96.8" font-family="Times,serif" font-size="14.00">w1,w2,w3</text>
</g>
<!-- 37 -->
<g id="node38" class="node">
<title>37</title>
<ellipse fill="none" stroke="black" cx="28776.29" cy="-40" rx="76.89" ry="18"/>
<text text-anchor="middle" x="28776.29" y="-36.3" font-family="Times,serif" font-size="14.00">found out (37)</text>
</g>
<!-- 5&#45;&gt;37 -->
<g id="edge10" class="edge">
<title>5&#45;&gt;37</title>
<path fill="none" stroke="black" d="M27355.14,-52.31C27931.28,-47.32 28482.27,-42.54 28689.19,-40.75"/>
<polygon fill="black" stroke="black" points="28689.41,-44.24 28699.38,-40.66 28689.35,-37.25 28689.41,-44.24"/>
<text text-anchor="middle" x="28645.1" y="-44.8" font-family="Times,serif" font-size="14.00">w0</text>
</g>
<!-- 6 -->
<g id="node7" class="node">
<title>6</title>
<ellipse fill="none" stroke="black" cx="10021.59" cy="-67" rx="1441.64" ry="18"/>
<text text-anchor="middle" x="10021.59" y="-63.3" font-family="Times,serif" font-size="14.00">also, I think, some probability in the view propounded by Andrew Knight, that this variability may be partly connected with excess of food. It seems pretty clear that organic beings must be exposed during several generations to the new conditions of life to cause any appreciable amount of variation; and (6)</text>
</g>
<!-- 7 -->
<g id="node8" class="node">
<title>7</title>
<ellipse fill="none" stroke="black" cx="11626.11" cy="-94" rx="45.49" ry="18"/>
<text text-anchor="middle" x="11626.11" y="-90.3" font-family="Times,serif" font-size="14.00">that (7)</text>
</g>
<!-- 6&#45;&gt;7 -->
<g id="edge12" class="edge">
<title>6&#45;&gt;7</title>
<path fill="none" stroke="black" d="M10880.73,-81.46C11172.83,-86.38 11454.8,-91.13 11570.3,-93.08"/>
<polygon fill="black" stroke="black" points="11570.57,-96.58 11580.63,-93.25 11570.69,-89.58 11570.57,-96.58"/>
<text text-anchor="middle" x="11517.66" y="-95.8" font-family="Times,serif" font-size="14.00">w0,w1,w2</text>
</g>
<!-- 38 -->
<g id="node39" class="node">
<title>38</title>
<ellipse fill="none" stroke="black" cx="11626.11" cy="-40" rx="53.89" ry="18"/>
<text text-anchor="middle" x="11626.11" y="-36.3" font-family="Times,serif" font-size="14.00">that, (38)</text>
</g>
<!-- 6&#45;&gt;38 -->
<g id="edge11" class="edge">
<title>6&#45;&gt;38</title>
<path fill="none" stroke="black" d="M10880.73,-52.54C11165.83,-47.74 11441.28,-43.1 11561.72,-41.07"/>
<polygon fill="black" stroke="black" points="11561.91,-44.57 11571.85,-40.9 11561.79,-37.57 11561.91,-44.57"/>
<text text-anchor="middle" x="11517.66" y="-45.8" font-family="Times,serif" font-size="14.00">w3</text>
</g>
<!-- 7&#45;&gt;2 -->
<g id="edge13" class="edge">
<title>7&#45;&gt;2</title>
<path fill="none" stroke="black" d="M11671.84,-93.77C11891.83,-92.62 12890.94,-87.41 13949.8,-81.88"/>
<polygon fill="black" stroke="black" points="13949.93,-85.38 13959.91,-81.83 13949.9,-78.38 13949.93,-85.38"/>
<text text-anchor="middle" x="11734.55" y="-96.8" font-family="Times,serif" font-size="14.00">w0,w1,w2</text>
</g>
<!-- 8 -->
<g id="node9" class="node">
<title>8</title>
<ellipse fill="none" stroke="black" cx="31376.52" cy="-67" rx="2414.57" ry="18"/>
<text text-anchor="middle" x="31376.52" y="-63.3" font-family="Times,serif" font-size="14.00">that very trifling changes, such as a little more or less water at some particular period of growth, will determine whether or not the plant sets a seed. I cannot here enter on the copious details which I have collected on this curious subject; but to show how singular the laws are which determine the reproduction of animals under confinement, I may just mention that carnivorous animals, even from the tropics, breed in this country pretty freely under confinement, with the exception of the plantigrades or bear (8)</text>
</g>
<!-- 28 -->
<g id="node29" class="node">
<title>28</title>
<ellipse fill="none" stroke="black" cx="34077.49" cy="-94" rx="203.36" ry="18"/>
<text text-anchor="middle" x="34077.49" y="-90.3" font-family="Times,serif" font-size="14.00">family, which seldom produce young; (28)</text>
</g>
<!-- 8&#45;&gt;28 -->
<g id="edge14" class="edge">
<title>8&#45;&gt;28</title>
<path fill="none" stroke="black" d="M32820.34,-81.43C33231.15,-85.54 33630.38,-89.54 33864.74,-91.88"/>
<polygon fill="black" stroke="black" points="33865.05,-95.38 33875.09,-91.99 33865.12,-88.39 33865.05,-95.38"/>
<text text-anchor="middle" x="33832.55" y="-94.8" font-family="Times,serif" font-size="14.00">w2,w3</text>
</g>
<!-- 32 -->
<g id="node33" class="node">
<title>32</title>
<ellipse fill="none" stroke="black" cx="34077.49" cy="-40" rx="63.89" ry="18"/>
<text text-anchor="middle" x="34077.49" y="-36.3" font-family="Times,serif" font-size="14.00">family; (32)</text>
</g>
<!-- 8&#45;&gt;32 -->
<g id="edge15" class="edge">
<title>8&#45;&gt;32</title>
<path fill="none" stroke="black" d="M32820.34,-52.57C33330.37,-47.46 33822.54,-42.54 34003.55,-40.73"/>
<polygon fill="black" stroke="black" points="34003.78,-44.23 34013.74,-40.63 34003.71,-37.23 34003.78,-44.23"/>
<text text-anchor="middle" x="33832.55" y="-45.8" font-family="Times,serif" font-size="14.00">w0,w1</text>
</g>
<!-- 9&#45;&gt;8 -->
<g id="edge16" class="edge">
<title>9&#45;&gt;8</title>
<path fill="none" stroke="black" d="M28852.94,-93.21C29027.96,-91.4 29482.33,-86.67 29958.04,-81.73"/>
<polygon fill="black" stroke="black" points="29958.26,-85.23 29968.22,-81.62 29958.19,-78.23 29958.26,-85.23"/>
<text text-anchor="middle" x="28907.48" y="-95.8" font-family="Times,serif" font-size="14.00">w1,w2,w3</text>
</g>
<!-- 11 -->
<g id="node12" class="node">
<title>11</title>
<ellipse fill="none" stroke="black" cx="22306.69" cy="-67" rx="121.58" ry="18"/>
<text text-anchor="middle" x="22306.69" y="-63.3" font-family="Times,serif" font-size="14.00">of the reproductive (11)</text>
</g>
<!-- 10&#45;&gt;11 -->
<g id="edge17" class="edge">
<title>10&#45;&gt;11</title>
<path fill="none" stroke="black" d="M22067.33,-88.17C22103.68,-84.95 22149.91,-80.84 22191.95,-77.1"/>
<polygon fill="black" stroke="black" points="22192.33,-80.58 22201.98,-76.21 22191.71,-73.61 22192.33,-80.58"/>
<text text-anchor="middle" x="22130.65" y="-88.8" font-family="Times,serif" font-size="14.00">w1,w2,w3</text>
</g>
<!-- 27 -->
<g id="node28" class="node">
<title>27</title>
<ellipse fill="none" stroke="black" cx="22579.47" cy="-94" rx="68.49" ry="18"/>
<text text-anchor="middle" x="22579.47" y="-90.3" font-family="Times,serif" font-size="14.00">system: (27)</text>
</g>
<!-- 11&#45;&gt;27 -->
<g id="edge18" class="edge">
<title>11&#45;&gt;27</title>
<path fill="none" stroke="black" d="M22408.13,-77.02C22440.18,-80.21 22475.02,-83.69 22504.8,-86.65"/>
<polygon fill="black" stroke="black" points="22504.81,-90.17 22515.11,-87.68 22505.51,-83.21 22504.81,-90.17"/>
<text text-anchor="middle" x="22469.73" y="-88.8" font-family="Times,serif" font-size="14.00">w2,w3</text>
</g>
<!-- 31 -->
<g id="node32" class="node">
<title>31</title>
<ellipse fill="none" stroke="black" cx="22579.47" cy="-40" rx="68.49" ry="18"/>
<text text-anchor="middle" x="22579.47" y="-36.3" font-family="Times,serif" font-size="14.00">system; (31)</text>
</g>
<!-- 11&#45;&gt;31 -->
<g id="edge19" class="edge">
<title>11&#45;&gt;31</title>
<path fill="none" stroke="black" d="M22408.13,-56.98C22440.18,-53.79 22475.02,-50.31 22504.8,-47.35"/>
<polygon fill="black" stroke="black" points="22505.51,-50.79 22515.11,-46.32 22504.81,-43.83 22505.51,-50.79"/>
<text text-anchor="middle" x="22469.73" y="-55.8" font-family="Times,serif" font-size="14.00">w0,w1</text>
</g>
<!-- 13 -->
<g id="node14" class="node">
<title>13</title>
<ellipse fill="none" stroke="black" cx="49841.79" cy="-100" rx="58.49" ry="18"/>
<text text-anchor="middle" x="49841.79" y="-96.3" font-family="Times,serif" font-size="14.00">effect (13)</text>
</g>
<!-- 12&#45;&gt;13 -->
<g id="edge21" class="edge">
<title>12&#45;&gt;13</title>
<path fill="none" stroke="black" d="M49645.51,-83.02C49689.2,-86.82 49737.44,-91.01 49775.04,-94.28"/>
<polygon fill="black" stroke="black" points="49775.08,-97.8 49785.35,-95.18 49775.69,-90.82 49775.08,-97.8"/>
<text text-anchor="middle" x="49723.6" y="-95.8" font-family="Times,serif" font-size="14.00">w0,w1,w2</text>
</g>
<!-- 39 -->
<g id="node40" class="node">
<title>39</title>
<ellipse fill="none" stroke="black" cx="49841.79" cy="-46" rx="63.89" ry="18"/>
<text text-anchor="middle" x="49841.79" y="-42.3" font-family="Times,serif" font-size="14.00">effects (39)</text>
</g>
<!-- 12&#45;&gt;39 -->
<g id="edge20" class="edge">
<title>12&#45;&gt;39</title>
<path fill="none" stroke="black" d="M49644.64,-62.73C49658.93,-61.46 49673.35,-60.2 49687.1,-59 49714.3,-56.63 49744.21,-54.09 49770.37,-51.89"/>
<polygon fill="black" stroke="black" points="49770.9,-55.35 49780.57,-51.03 49770.31,-48.38 49770.9,-55.35"/>
<text text-anchor="middle" x="49723.6" y="-62.8" font-family="Times,serif" font-size="14.00">w3</text>
</g>
<!-- 14 -->
<g id="node15" class="node">
<title>14</title>
<ellipse fill="none" stroke="black" cx="50559.79" cy="-73" rx="545.1" ry="18"/>
<text text-anchor="middle" x="50559.79" y="-69.3" font-family="Times,serif" font-size="14.00">of use. Not a single domestic animal can be named which has not in some country drooping ears; and the view (14)</text>
</g>
<!-- 13&#45;&gt;14 -->
<g id="edge22" class="edge">
<title>13&#45;&gt;14</title>
<path fill="none" stroke="black" d="M49899.87,-97.85C49964.75,-95.4 50076.4,-91.19 50189.55,-86.92"/>
<polygon fill="black" stroke="black" points="50189.94,-90.41 50199.8,-86.54 50189.68,-83.42 50189.94,-90.41"/>
<text text-anchor="middle" x="49959.99" y="-99.8" font-family="Times,serif" font-size="14.00">w0,w1,w2</text>
</g>
<!-- 15 -->
<g id="node16" class="node">
<title>15</title>
<ellipse fill="none" stroke="black" cx="51509.01" cy="-73" rx="79.89" ry="18"/>
<text text-anchor="middle" x="51509.01" y="-69.3" font-family="Times,serif" font-size="14.00">suggested (15)</text>
</g>
<!-- 14&#45;&gt;15 -->
<g id="edge23" class="edge">
<title>14&#45;&gt;15</title>
<path fill="none" stroke="black" d="M51082.99,-78.08C51184.51,-78.88 51290.12,-79.58 51389.07,-80 51398.85,-80.04 51401.3,-80.35 51411.07,-80 51415.04,-79.86 51419.09,-79.68 51423.19,-79.48"/>
<polygon fill="black" stroke="black" points="51423.62,-82.96 51433.42,-78.93 51423.24,-75.97 51423.62,-82.96"/>
<text text-anchor="middle" x="51267.08" y="-82.8" font-family="Times,serif" font-size="14.00">w0,w1,w2</text>
</g>
<!-- 40 -->
<g id="node41" class="node">
<title>40</title>
<ellipse fill="none" stroke="black" cx="51267.08" cy="-46" rx="103.98" ry="18"/>
<text text-anchor="middle" x="51267.08" y="-42.3" font-family="Times,serif" font-size="14.00">which has been (40)</text>
</g>
<!-- 14&#45;&gt;40 -->
<g id="edge24" class="edge">
<title>14&#45;&gt;40</title>
<path fill="none" stroke="black" d="M50916.53,-59.38C51003.3,-56.06 51089.81,-52.75 51155.07,-50.25"/>
<polygon fill="black" stroke="black" points="51155.5,-53.74 51165.35,-49.86 51155.23,-46.74 51155.5,-53.74"/>
<text text-anchor="middle" x="51134.09" y="-54.8" font-family="Times,serif" font-size="14.00">w3</text>
</g>
<!-- 16 -->
<g id="node17" class="node">
<title>16</title>
<ellipse fill="none" stroke="black" cx="51810.4" cy="-108" rx="112.38" ry="18"/>
<text text-anchor="middle" x="51810.4" y="-104.3" font-family="Times,serif" font-size="14.00">by some authors, (16)</text>
</g>
<!-- 15&#45;&gt;16 -->
<g id="edge25" class="edge">
<title>15&#45;&gt;16</title>
<path fill="none" stroke="black" d="M51580.21,-81.21C51618.61,-85.7 51666.84,-91.33 51709.14,-96.28"/>
<polygon fill="black" stroke="black" points="51708.85,-99.77 51719.19,-97.45 51709.66,-92.82 51708.85,-99.77"/>
<text text-anchor="middle" x="51643.46" y="-95.8" font-family="Times,serif" font-size="14.00">w0,w1,w2</text>
</g>
<!-- 17 -->
<g id="node18" class="node">
<title>17</title>
<ellipse fill="none" stroke="black" cx="52440.65" cy="-73" rx="408.63" ry="18"/>
<text text-anchor="middle" x="52440.65" y="-69.3" font-family="Times,serif" font-size="14.00">that the drooping is due to the disuse of the muscles of the ear, from the animals (17)</text>
</g>
<!-- 15&#45;&gt;17 -->
<g id="edge26" class="edge">
<title>15&#45;&gt;17</title>
<path fill="none" stroke="black" d="M51587.72,-69.46C51621.57,-68.08 51661.72,-66.67 51697.96,-66 51815.4,-63.81 51943.31,-64.07 52059.33,-65.32"/>
<polygon fill="black" stroke="black" points="52059.4,-68.82 52069.44,-65.43 52059.48,-61.82 52059.4,-68.82"/>
<text text-anchor="middle" x="51810.4" y="-69.8" font-family="Times,serif" font-size="14.00">w3</text>
</g>
<!-- 16&#45;&gt;17 -->
<g id="edge27" class="edge">
<title>16&#45;&gt;17</title>
<path fill="none" stroke="black" d="M51916.91,-102.12C51987.99,-98.16 52085.08,-92.75 52176.3,-87.67"/>
<polygon fill="black" stroke="black" points="52176.75,-91.15 52186.53,-87.1 52176.36,-84.16 52176.75,-91.15"/>
<text text-anchor="middle" x="51977.34" y="-103.8" font-family="Times,serif" font-size="14.00">w0,w1,w2</text>
</g>
<!-- 18 -->
<g id="node19" class="node">
<title>18</title>
<ellipse fill="none" stroke="black" cx="53063.1" cy="-100" rx="104.78" ry="18"/>
<text text-anchor="middle" x="53063.1" y="-96.3" font-family="Times,serif" font-size="14.00">not being much (18)</text>
</g>
<!-- 17&#45;&gt;18 -->
<g id="edge28" class="edge">
<title>17&#45;&gt;18</title>
<path fill="none" stroke="black" d="M52732.35,-85.65C52810.26,-89.04 52889.82,-92.5 52951.26,-95.18"/>
<polygon fill="black" stroke="black" points="52951.21,-98.68 52961.35,-95.62 52951.52,-91.68 52951.21,-98.68"/>
<text text-anchor="middle" x="52903.96" y="-97.8" font-family="Times,serif" font-size="14.00">w0,w1,w2</text>
</g>
<!-- 41 -->
<g id="node42" class="node">
<title>41</title>
<ellipse fill="none" stroke="black" cx="53063.1" cy="-46" rx="94.48" ry="18"/>
<text text-anchor="middle" x="53063.1" y="-42.3" font-family="Times,serif" font-size="14.00">being seldom (41)</text>
</g>
<!-- 17&#45;&gt;41 -->
<g id="edge29" class="edge">
<title>17&#45;&gt;41</title>
<path fill="none" stroke="black" d="M52732.35,-60.35C52814.29,-56.78 52898.05,-53.14 52960.65,-50.41"/>
<polygon fill="black" stroke="black" points="52961.07,-53.9 52970.91,-49.97 52960.76,-46.91 52961.07,-53.9"/>
<text text-anchor="middle" x="52903.96" y="-56.8" font-family="Times,serif" font-size="14.00">w3</text>
</g>
<!-- 19 -->
<g id="node20" class="node">
<title>19</title>
<ellipse fill="none" stroke="black" cx="53477.58" cy="-73" rx="200.66" ry="18"/>
<text text-anchor="middle" x="53477.58" y="-69.3" font-family="Times,serif" font-size="14.00">alarmed by danger, seems probable. (19)</text>
</g>
<!-- 18&#45;&gt;19 -->
<g id="edge30" class="edge">
<title>18&#45;&gt;19</title>
<path fill="none" stroke="black" d="M53161.07,-93.65C53203.96,-90.85 53255.71,-87.46 53304.79,-84.25"/>
<polygon fill="black" stroke="black" points="53305.14,-87.73 53314.89,-83.58 53304.68,-80.74 53305.14,-87.73"/>
<text text-anchor="middle" x="53222.25" y="-95.8" font-family="Times,serif" font-size="14.00">w0,w1,w2</text>
</g>
<!-- 19&#45;&gt;1 -->
<g id="edge31" class="edge">
<title>19&#45;&gt;1</title>
<path fill="none" stroke="black" d="M53678.52,-73C53723.94,-73 53768.64,-73 53802.25,-73"/>
<polygon fill="black" stroke="black" points="53802.31,-76.5 53812.31,-73 53802.31,-69.5 53802.31,-76.5"/>
<text text-anchor="middle" x="53745.41" y="-76.8" font-family="Times,serif" font-size="14.00">w0,w1,w2,w3</text>
</g>
<!-- 21 -->
<g id="node22" class="node">
<title>21</title>
<ellipse fill="none" stroke="black" cx="2556.19" cy="-67" rx="105.08" ry="18"/>
<text text-anchor="middle" x="2556.19" y="-63.3" font-family="Times,serif" font-size="14.00">more from each (21)</text>
</g>
<!-- 20&#45;&gt;21 -->
<g id="edge33" class="edge">
<title>20&#45;&gt;21</title>
<path fill="none" stroke="black" d="M2210.21,-69.64C2278.12,-69.78 2345.65,-69.91 2410.9,-70 2420.68,-70.01 2423.13,-70.12 2432.9,-70 2435.79,-69.96 2438.71,-69.92 2441.67,-69.88"/>
<polygon fill="black" stroke="black" points="2441.84,-73.38 2451.78,-69.72 2441.73,-66.38 2441.84,-73.38"/>
<text text-anchor="middle" x="2335.06" y="-72.8" font-family="Times,serif" font-size="14.00">w1,w2,w3</text>
</g>
<!-- 42 -->
<g id="node43" class="node">
<title>42</title>
<ellipse fill="none" stroke="black" cx="2335.06" cy="-40" rx="57.69" ry="18"/>
<text text-anchor="middle" x="2335.06" y="-36.3" font-family="Times,serif" font-size="14.00">much (42)</text>
</g>
<!-- 20&#45;&gt;42 -->
<g id="edge32" class="edge">
<title>20&#45;&gt;42</title>
<path fill="none" stroke="black" d="M1876.07,-52.64C2031.88,-48.34 2183.45,-44.16 2267.22,-41.84"/>
<polygon fill="black" stroke="black" points="2267.44,-45.34 2277.34,-41.57 2267.25,-38.34 2267.44,-45.34"/>
<text text-anchor="middle" x="2248.21" y="-45.8" font-family="Times,serif" font-size="14.00">w0</text>
</g>
<!-- 22 -->
<g id="node23" class="node">
<title>22</title>
<ellipse fill="none" stroke="black" cx="2829.63" cy="-94" rx="57.39" ry="18"/>
<text text-anchor="middle" x="2829.63" y="-90.3" font-family="Times,serif" font-size="14.00">other (22)</text>
</g>
<!-- 21&#45;&gt;22 -->
<g id="edge35" class="edge">
<title>21&#45;&gt;22</title>
<path fill="none" stroke="black" d="M2647.58,-75.99C2685.9,-79.8 2729.66,-84.16 2764.57,-87.63"/>
<polygon fill="black" stroke="black" points="2764.33,-91.12 2774.63,-88.63 2765.03,-84.16 2764.33,-91.12"/>
<text text-anchor="middle" x="2715.98" y="-89.8" font-family="Times,serif" font-size="14.00">w1,w2,w3</text>
</g>
<!-- 43 -->
<g id="node44" class="node">
<title>43</title>
<ellipse fill="none" stroke="black" cx="2829.63" cy="-40" rx="59.29" ry="18"/>
<text text-anchor="middle" x="2829.63" y="-36.3" font-family="Times,serif" font-size="14.00">other, (43)</text>
</g>
<!-- 21&#45;&gt;43 -->
<g id="edge34" class="edge">
<title>21&#45;&gt;43</title>
<path fill="none" stroke="black" d="M2643.35,-56.84C2655.48,-55.5 2667.79,-54.18 2679.48,-53 2706.54,-50.27 2736.39,-47.6 2762.23,-45.4"/>
<polygon fill="black" stroke="black" points="2762.62,-48.88 2772.29,-44.55 2762.03,-41.9 2762.62,-48.88"/>
<text text-anchor="middle" x="2715.98" y="-56.8" font-family="Times,serif" font-size="14.00">w0</text>
</g>
<!-- 23 -->
<g id="node24" class="node">
<title>23</title>
<ellipse fill="none" stroke="black" cx="4406.85" cy="-67" rx="1409.15" ry="18"/>
<text text-anchor="middle" x="4406.85" y="-63.3" font-family="Times,serif" font-size="14.00">than do the individuals of any one species or variety in a state of nature. When we reflect on the vast diversity of the plants and animals which have been cultivated, and which have varied during all ages under the most different climates and treatment, I think we are driven to conclude that this (23)</text>
</g>
<!-- 22&#45;&gt;23 -->
<g id="edge36" class="edge">
<title>22&#45;&gt;23</title>
<path fill="none" stroke="black" d="M2887.16,-93.03C3001.2,-91.08 3272.08,-86.43 3554.01,-81.6"/>
<polygon fill="black" stroke="black" points="3554.1,-85.1 3564.04,-81.43 3553.98,-78.1 3554.1,-85.1"/>
<text text-anchor="middle" x="2943.27" y="-95.8" font-family="Times,serif" font-size="14.00">w1,w2,w3</text>
</g>
<!-- 24 -->
<g id="node25" class="node">
<title>24</title>
<ellipse fill="none" stroke="black" cx="5991.87" cy="-94" rx="57.39" ry="18"/>
<text text-anchor="middle" x="5991.87" y="-90.3" font-family="Times,serif" font-size="14.00">great (24)</text>
</g>
<!-- 23&#45;&gt;24 -->
<g id="edge38" class="edge">
<title>23&#45;&gt;24</title>
<path fill="none" stroke="black" d="M5252.37,-81.4C5532,-86.17 5802.76,-90.79 5924.22,-92.86"/>
<polygon fill="black" stroke="black" points="5924.4,-96.37 5934.46,-93.04 5924.52,-89.37 5924.4,-96.37"/>
<text text-anchor="middle" x="5870.42" y="-95.8" font-family="Times,serif" font-size="14.00">w1,w2,w3</text>
</g>
<!-- 44 -->
<g id="node45" class="node">
<title>44</title>
<ellipse fill="none" stroke="black" cx="5991.87" cy="-40" rx="66.89" ry="18"/>
<text text-anchor="middle" x="5991.87" y="-36.3" font-family="Times,serif" font-size="14.00">greater (44)</text>
</g>
<!-- 23&#45;&gt;44 -->
<g id="edge37" class="edge">
<title>23&#45;&gt;44</title>
<path fill="none" stroke="black" d="M5252.37,-52.6C5524.75,-47.95 5788.73,-43.45 5914.48,-41.3"/>
<polygon fill="black" stroke="black" points="5914.82,-44.8 5924.76,-41.13 5914.7,-37.8 5914.82,-44.8"/>
<text text-anchor="middle" x="5870.42" y="-45.8" font-family="Times,serif" font-size="14.00">w0</text>
</g>
<!-- 25 -->
<g id="node26" class="node">
<title>25</title>
<ellipse fill="none" stroke="black" cx="7222.02" cy="-67" rx="1054.41" ry="18"/>
<text text-anchor="middle" x="7222.02" y="-63.3" font-family="Times,serif" font-size="14.00">variability is simply due to our domestic productions having been raised under conditions of life not so uniform as, and somewhat different from, those to which the parent&#45;species have been exposed under nature. There (25)</text>
</g>
<!-- 24&#45;&gt;25 -->
<g id="edge39" class="edge">
<title>24&#45;&gt;25</title>
<path fill="none" stroke="black" d="M6049.24,-92.76C6145.4,-90.65 6351.51,-86.12 6564.46,-81.43"/>
<polygon fill="black" stroke="black" points="6564.69,-84.93 6574.61,-81.21 6564.53,-77.93 6564.69,-84.93"/>
<text text-anchor="middle" x="6113.31" y="-95.8" font-family="Times,serif" font-size="14.00">w1,w2,w3</text>
</g>
<!-- 26 -->
<g id="node27" class="node">
<title>26</title>
<ellipse fill="none" stroke="black" cx="8428.12" cy="-94" rx="40.09" ry="18"/>
<text text-anchor="middle" x="8428.12" y="-90.3" font-family="Times,serif" font-size="14.00">is (26)</text>
</g>
<!-- 25&#45;&gt;26 -->
<g id="edge40" class="edge">
<title>25&#45;&gt;26</title>
<path fill="none" stroke="black" d="M7861.65,-81.32C8076.67,-86.14 8285.44,-90.82 8377.72,-92.89"/>
<polygon fill="black" stroke="black" points="8377.79,-96.39 8387.87,-93.12 8377.95,-89.4 8377.79,-96.39"/>
<text text-anchor="middle" x="8330.72" y="-95.8" font-family="Times,serif" font-size="14.00">w1,w2,w3</text>
</g>
<!-- 45 -->
<g id="node46" class="node">
<title>45</title>
<ellipse fill="none" stroke="black" cx="8428.12" cy="-40" rx="42.79" ry="18"/>
<text text-anchor="middle" x="8428.12" y="-36.3" font-family="Times,serif" font-size="14.00">is, (45)</text>
</g>
<!-- 25&#45;&gt;45 -->
<g id="edge41" class="edge">
<title>25&#45;&gt;45</title>
<path fill="none" stroke="black" d="M7861.65,-52.68C8074.71,-47.9 8281.64,-43.26 8375.18,-41.16"/>
<polygon fill="black" stroke="black" points="8375.29,-44.66 8385.21,-40.94 8375.14,-37.66 8375.29,-44.66"/>
<text text-anchor="middle" x="8330.72" y="-45.8" font-family="Times,serif" font-size="14.00">w0</text>
</g>
<!-- 26&#45;&gt;6 -->
<g id="edge42" class="edge">
<title>26&#45;&gt;6</title>
<path fill="none" stroke="black" d="M8468.46,-93.33C8570.51,-91.6 8856.71,-86.75 9156,-81.67"/>
<polygon fill="black" stroke="black" points="9156.26,-85.16 9166.2,-81.5 9156.14,-78.17 9156.26,-85.16"/>
<text text-anchor="middle" x="8525.52" y="-95.8" font-family="Times,serif" font-size="14.00">w1,w2,w3</text>
</g>
<!-- 27&#45;&gt;5 -->
<g id="edge43" class="edge">
<title>27&#45;&gt;5</title>
<path fill="none" stroke="black" d="M22648.01,-93.41C22835.57,-91.76 23387.36,-86.92 23968.27,-81.83"/>
<polygon fill="black" stroke="black" points="23968.58,-85.33 23978.54,-81.74 23968.51,-78.33 23968.58,-85.33"/>
<text text-anchor="middle" x="22689.22" y="-96.8" font-family="Times,serif" font-size="14.00">w2,w3</text>
</g>
<!-- 29 -->
<g id="node30" class="node">
<title>29</title>
<ellipse fill="none" stroke="black" cx="34438.01" cy="-72" rx="71.49" ry="18"/>
<text text-anchor="middle" x="34438.01" y="-68.3" font-family="Times,serif" font-size="14.00">whereas (29)</text>
</g>
<!-- 28&#45;&gt;29 -->
<g id="edge44" class="edge">
<title>28&#45;&gt;29</title>
<path fill="none" stroke="black" d="M34245.15,-83.77C34284.59,-81.35 34324.85,-78.88 34358.24,-76.83"/>
<polygon fill="black" stroke="black" points="34358.61,-80.32 34368.37,-76.21 34358.18,-73.33 34358.61,-80.32"/>
<text text-anchor="middle" x="34322.42" y="-83.8" font-family="Times,serif" font-size="14.00">w2,w3</text>
</g>
<!-- 29&#45;&gt;3 -->
<g id="edge45" class="edge">
<title>29&#45;&gt;3</title>
<path fill="none" stroke="black" d="M34509.6,-71.49C34725.17,-69.92 35403.83,-65 36118.43,-59.81"/>
<polygon fill="black" stroke="black" points="36118.71,-63.31 36128.69,-59.74 36118.66,-56.31 36118.71,-63.31"/>
<text text-anchor="middle" x="34566.6" y="-74.8" font-family="Times,serif" font-size="14.00">w1,w2,w3</text>
</g>
<!-- 30&#45;&gt;4 -->
<g id="edge46" class="edge">
<title>30&#45;&gt;4</title>
<path fill="none" stroke="black" d="M41931.48,-85.55C41943.68,-88.12 41956.73,-90.51 41968.96,-92 42086.49,-106.35 42116.86,-98.22 42235.24,-100 42479.59,-103.67 42540.72,-101.03 42785.09,-100 43320.64,-97.74 43906.6,-93.35 44429.01,-88.76"/>
<polygon fill="black" stroke="black" points="44429.05,-92.26 44439.02,-88.67 44428.99,-85.26 44429.05,-92.26"/>
<text text-anchor="middle" x="42510.17" y="-104.8" font-family="Times,serif" font-size="14.00">w1,w2</text>
</g>
<!-- 46 -->
<g id="node47" class="node">
<title>46</title>
<ellipse fill="none" stroke="black" cx="42510.17" cy="-73" rx="274.85" ry="18"/>
<text text-anchor="middle" x="42510.17" y="-69.3" font-family="Times,serif" font-size="14.00">Effects of Habit; Correlation of Growth; Inheritance. (46)</text>
</g>
<!-- 30&#45;&gt;46 -->
<g id="edge47" class="edge">
<title>30&#45;&gt;46</title>
<path fill="none" stroke="black" d="M41951.03,-73C42018.02,-73 42123.65,-73 42225.08,-73"/>
<polygon fill="black" stroke="black" points="42225.2,-76.5 42235.2,-73 42225.2,-69.5 42225.2,-76.5"/>
<text text-anchor="middle" x="42093.1" y="-76.8" font-family="Times,serif" font-size="14.00">w3</text>
</g>
<!-- 31&#45;&gt;5 -->
<g id="edge48" class="edge">
<title>31&#45;&gt;5</title>
<path fill="none" stroke="black" d="M22648.01,-40.59C22835.57,-42.24 23387.36,-47.08 23968.27,-52.17"/>
<polygon fill="black" stroke="black" points="23968.51,-55.67 23978.54,-52.26 23968.58,-48.67 23968.51,-55.67"/>
<text text-anchor="middle" x="22689.22" y="-44.8" font-family="Times,serif" font-size="14.00">w0,w1</text>
</g>
<!-- 32&#45;&gt;29 -->
<g id="edge50" class="edge">
<title>32&#45;&gt;29</title>
<path fill="none" stroke="black" d="M34140.49,-42.67C34194.78,-45.37 34275.73,-50.26 34345.92,-58 34353.02,-58.78 34360.43,-59.72 34367.8,-60.73"/>
<polygon fill="black" stroke="black" points="34367.42,-64.21 34377.82,-62.15 34368.41,-57.28 34367.42,-64.21"/>
<text text-anchor="middle" x="34322.42" y="-61.8" font-family="Times,serif" font-size="14.00">w1</text>
</g>
<!-- 47 -->
<g id="node48" class="node">
<title>47</title>
<ellipse fill="none" stroke="black" cx="34438.01" cy="-18" rx="74.19" ry="18"/>
<text text-anchor="middle" x="34438.01" y="-14.3" font-family="Times,serif" font-size="14.00">whereas, (47)</text>
</g>
<!-- 32&#45;&gt;47 -->
<g id="edge49" class="edge">
<title>32&#45;&gt;47</title>
<path fill="none" stroke="black" d="M34136.4,-33.08C34180.8,-28.12 34243.63,-21.83 34298.92,-19 34316.61,-18.09 34335.6,-17.63 34353.66,-17.42"/>
<polygon fill="black" stroke="black" points="34353.91,-20.92 34363.87,-17.33 34353.84,-13.92 34353.91,-20.92"/>
<text text-anchor="middle" x="34322.42" y="-22.8" font-family="Times,serif" font-size="14.00">w0</text>
</g>
<!-- 33&#45;&gt;20 -->
<g id="edge51" class="edge">
<title>33&#45;&gt;20</title>
<path fill="none" stroke="black" d="M430.39,-43.25C524.8,-45.68 661.02,-49.18 799.96,-52.76"/>
<polygon fill="black" stroke="black" points="799.88,-56.25 809.96,-53.01 800.06,-49.26 799.88,-56.25"/>
<text text-anchor="middle" x="461.37" y="-46.8" font-family="Times,serif" font-size="14.00">w3</text>
</g>
<!-- 34&#45;&gt;11 -->
<g id="edge52" class="edge">
<title>34&#45;&gt;11</title>
<path fill="none" stroke="black" d="M22071.87,-46.23C22107.42,-49.39 22151.5,-53.3 22191.76,-56.88"/>
<polygon fill="black" stroke="black" points="22191.64,-60.38 22201.91,-57.78 22192.26,-53.41 22191.64,-60.38"/>
<text text-anchor="middle" x="22130.65" y="-57.8" font-family="Times,serif" font-size="14.00">w0</text>
</g>
<!-- 35&#45;&gt;4 -->
<g id="edge53" class="edge">
<title>35&#45;&gt;4</title>
<path fill="none" stroke="black" d="M42217.05,-25.13C42355.23,-26.44 42586.26,-28.69 42785.09,-31 43441.57,-38.63 44173.82,-48.17 44771.89,-56.23"/>
<polygon fill="black" stroke="black" points="44771.97,-59.73 44782.01,-56.37 44772.06,-52.73 44771.97,-59.73"/>
<text text-anchor="middle" x="42510.17" y="-34.8" font-family="Times,serif" font-size="14.00">w0</text>
</g>
<!-- 36&#45;&gt;12 -->
<g id="edge54" class="edge">
<title>36&#45;&gt;12</title>
<path fill="none" stroke="black" d="M49326.41,-52.74C49351.24,-55.23 49380.18,-58.14 49408.27,-60.95"/>
<polygon fill="black" stroke="black" points="49408.27,-64.47 49418.57,-61.99 49408.97,-57.51 49408.27,-64.47"/>
<text text-anchor="middle" x="49360.62" y="-60.8" font-family="Times,serif" font-size="14.00">w3</text>
</g>
<!-- 37&#45;&gt;8 -->
<g id="edge55" class="edge">
<title>37&#45;&gt;8</title>
<path fill="none" stroke="black" d="M28852.94,-40.79C29027.96,-42.6 29482.33,-47.33 29958.04,-52.27"/>
<polygon fill="black" stroke="black" points="29958.19,-55.77 29968.22,-52.38 29958.26,-48.77 29958.19,-55.77"/>
<text text-anchor="middle" x="28907.48" y="-44.8" font-family="Times,serif" font-size="14.00">w0</text>
</g>
<!-- 38&#45;&gt;2 -->
<g id="edge56" class="edge">
<title>38&#45;&gt;2</title>
<path fill="none" stroke="black" d="M11680.43,-40.28C11916.71,-41.51 12903.8,-46.66 13949.26,-52.12"/>
<polygon fill="black" stroke="black" points="13949.61,-55.62 13959.63,-52.17 13949.65,-48.62 13949.61,-55.62"/>
<text text-anchor="middle" x="11734.55" y="-43.8" font-family="Times,serif" font-size="14.00">w3</text>
</g>
<!-- 39&#45;&gt;14 -->
<g id="edge57" class="edge">
<title>39&#45;&gt;14</title>
<path fill="none" stroke="black" d="M49905.08,-48.35C49970.72,-50.82 50079.71,-54.93 50190.06,-59.1"/>
<polygon fill="black" stroke="black" points="50189.93,-62.59 50200.05,-59.47 50190.19,-55.6 50189.93,-62.59"/>
<text text-anchor="middle" x="49959.99" y="-54.8" font-family="Times,serif" font-size="14.00">w3</text>
</g>
<!-- 40&#45;&gt;15 -->
<g id="edge58" class="edge">
<title>40&#45;&gt;15</title>
<path fill="none" stroke="black" d="M51354.7,-55.75C51378.32,-58.41 51403.81,-61.27 51427.1,-63.89"/>
<polygon fill="black" stroke="black" points="51426.95,-67.4 51437.28,-65.04 51427.74,-60.44 51426.95,-67.4"/>
<text text-anchor="middle" x="51400.07" y="-64.8" font-family="Times,serif" font-size="14.00">w3</text>
</g>
<!-- 41&#45;&gt;19 -->
<g id="edge59" class="edge">
<title>41&#45;&gt;19</title>
<path fill="none" stroke="black" d="M53152.59,-51.79C53197.07,-54.7 53252.53,-58.33 53304.93,-61.76"/>
<polygon fill="black" stroke="black" points="53304.81,-65.26 53315.02,-62.42 53305.27,-58.28 53304.81,-65.26"/>
<text text-anchor="middle" x="53222.25" y="-61.8" font-family="Times,serif" font-size="14.00">w3</text>
</g>
<!-- 42&#45;&gt;21 -->
<g id="edge60" class="edge">
<title>42&#45;&gt;21</title>
<path fill="none" stroke="black" d="M2389.1,-46.54C2410.48,-49.17 2435.81,-52.29 2460.16,-55.29"/>
<polygon fill="black" stroke="black" points="2459.8,-58.77 2470.16,-56.52 2460.66,-51.83 2459.8,-58.77"/>
<text text-anchor="middle" x="2421.9" y="-54.8" font-family="Times,serif" font-size="14.00">w0</text>
</g>
<!-- 43&#45;&gt;23 -->
<g id="edge61" class="edge">
<title>43&#45;&gt;23</title>
<path fill="none" stroke="black" d="M2889.03,-41C3004.08,-42.97 3273.33,-47.59 3553.56,-52.39"/>
<polygon fill="black" stroke="black" points="3553.9,-55.9 3563.96,-52.57 3554.02,-48.9 3553.9,-55.9"/>
<text text-anchor="middle" x="2943.27" y="-45.8" font-family="Times,serif" font-size="14.00">w0</text>
</g>
<!-- 44&#45;&gt;25 -->
<g id="edge62" class="edge">
<title>44&#45;&gt;25</title>
<path fill="none" stroke="black" d="M6058.9,-41.45C6158.72,-43.65 6358.36,-48.03 6564.41,-52.56"/>
<polygon fill="black" stroke="black" points="6564.46,-56.07 6574.54,-52.79 6564.62,-49.07 6564.46,-56.07"/>
<text text-anchor="middle" x="6113.31" y="-46.8" font-family="Times,serif" font-size="14.00">w0</text>
</g>
<!-- 45&#45;&gt;6 -->
<g id="edge63" class="edge">
<title>45&#45;&gt;6</title>
<path fill="none" stroke="black" d="M8471.28,-40.72C8575.71,-42.49 8859.47,-47.3 9156.08,-52.33"/>
<polygon fill="black" stroke="black" points="9156.13,-55.83 9166.19,-52.5 9156.25,-48.84 9156.13,-55.83"/>
<text text-anchor="middle" x="8525.52" y="-44.8" font-family="Times,serif" font-size="14.00">w0</text>
</g>
<!-- 46&#45;&gt;4 -->
<g id="edge64" class="edge">
<title>46&#45;&gt;4</title>
<path fill="none" stroke="black" d="M42785.12,-73C42800.45,-73 42816.33,-73 42832.73,-73"/>
<polygon fill="black" stroke="black" points="42833.01,-76.5 42843.01,-73 42833.01,-69.5 42833.01,-76.5"/>
<text text-anchor="middle" x="42814.09" y="-76.8" font-family="Times,serif" font-size="14.00">w3</text>
</g>
<!-- 47&#45;&gt;3 -->
<g id="edge65" class="edge">
<title>47&#45;&gt;3</title>
<path fill="none" stroke="black" d="M34512.08,-18.53C34730.3,-20.11 35406.4,-25.02 36118.2,-30.19"/>
<polygon fill="black" stroke="black" points="36118.39,-33.69 36128.41,-30.26 36118.44,-26.69 36118.39,-33.69"/>
<text text-anchor="middle" x="34566.6" y="-23.8" font-family="Times,serif" font-size="14.00">w0</text>
</g>
</g>
</svg>
